<?xml version="1.0" encoding="UTF-8" standalone="no"?>
<svg
   width="61.018536"
   height="60.710133"
   viewBox="0 0 61.018535 60.710133"
   fill="none"
   version="1.1"
   id="svg5"
   sodipodi:docname="hero.svg"
   inkscape:version="1.3.2 (091e20ef0f, 2023-11-25, custom)"
   xmlns:inkscape="http://www.inkscape.org/namespaces/inkscape"
   xmlns:sodipodi="http://sodipodi.sourceforge.net/DTD/sodipodi-0.dtd"
   xmlns="http://www.w3.org/2000/svg"
   xmlns:svg="http://www.w3.org/2000/svg">
  <sodipodi:namedview
     id="namedview5"
     pagecolor="#ffffff"
     bordercolor="#000000"
     borderopacity="0.25"
     inkscape:showpageshadow="2"
     inkscape:pageopacity="0.0"
     inkscape:pagecheckerboard="0"
     inkscape:deskcolor="#d1d1d1"
     inkscape:zoom="5.4430778"
     inkscape:cx="36.560198"
     inkscape:cy="41.153187"
     inkscape:window-width="1920"
     inkscape:window-height="1048"
     inkscape:window-x="0"
     inkscape:window-y="0"
     inkscape:window-maximized="1"
     inkscape:current-layer="svg5" />
  <path
     style="fill:#eb1b26;fill-opacity:1"
     d="m 23.554003,50.725032 c 1.366,3.115 2.049,6.4434 2.049,9.9851 0,-3.5417 0.661,-6.8701 1.984,-9.9851 1.365,-3.115 3.2,-5.8246 5.504,-8.1288 2.305,-2.3043 5.014,-4.1178 8.129,-5.4406 3.115,-1.3655 6.444,-2.0482 9.985,-2.0482 -3.541,0 -6.87,-0.6614 -9.985,-1.9843 -3.115,-1.3654 -5.824,-3.2003 -8.129,-5.5045 -2.304,-2.3043 -4.139,-5.0139 -5.504,-8.12893 -1.323,-3.115 -1.984,-6.44336 -1.984,-9.9850695 0,3.5417095 -0.683,6.8700695 -2.049,9.9850695 -1.322003,3.11503 -3.136003,5.82463 -5.440003,8.12893 -2.304,2.3042 -5.014,4.1391 -8.129,5.5045 -3.115,1.3229 -6.443,1.9843 -9.985,1.9843 3.542,0 6.87,0.6827 9.985,2.0482 3.115,1.3228 5.825,3.1363 8.129,5.4406 2.304,2.3042 4.118,5.0138 5.440003,8.1288 z"
     id="path5" />
  <defs
     id="defs5">
    <linearGradient
       id="paint0_linear_958_15881"
       x1="-57.4049"
       y1="130.44099"
       x2="354.97"
       y2="30.368999"
       gradientUnits="userSpaceOnUse"
       gradientTransform="translate(711.20148,321.49779)">
      <stop
         stop-color="#439DDF"
         id="stop1" />
      <stop
         offset="0.524208"
         stop-color="#4F87ED"
         id="stop2" />
      <stop
         offset="0.781452"
         stop-color="#9476C5"
         id="stop3" />
      <stop
         offset="0.888252"
         stop-color="#BC688E"
         id="stop4" />
      <stop
         offset="1"
         stop-color="#D6645D"
         id="stop5" />
    </linearGradient>
  </defs>
  <path
     style="color:#000000;fill:#eb1b26;stroke-width:1;-inkscape-stroke:none;fill-opacity:1"
     d="m 51.204892,0 c 0,1.27501 -0.245295,2.465389 -0.735073,3.58227 l -0.0013,0.0024 v 0.0012 C 49.992342,4.707965 49.341791,5.678526 48.51481,6.505611 47.687201,7.333292 46.714912,7.992296 45.591445,8.484745 44.47492,8.958354 43.28421,9.195638 42.009175,9.195638 v 0.6190085 c 1.275139,0 2.465381,0.2442585 3.58227,0.7338625 l 0.0024,0.0013 h 0.0013 c 1.122163,0.476531 2.092808,1.126707 2.919738,1.953746 0.826977,0.827045 1.477532,1.797654 1.953746,2.919738 v 0.0013 l 0.0013,0.0024 c 0.489778,1.116879 0.735074,2.307264 0.735074,3.58227 h 0.619008 c 0,-1.276288 0.237473,-2.46838 0.712102,-3.585897 0.492093,-1.121703 1.150081,-2.093028 1.976716,-2.919738 0.827364,-0.827113 1.797597,-1.477224 2.919738,-1.953746 h 0.0013 l 0.0024,-0.0013 c 1.116867,-0.489594 2.307514,-0.7338625 3.58227,-0.7338625 V 9.195718 c -1.275997,0 -2.468374,-0.237503 -3.585897,-0.712102 C 56.310507,7.991289 55.339895,7.332524 54.512719,6.505635 53.686079,5.678886 53.028096,4.70761 52.536003,3.585897 52.061374,2.468378 51.8239,1.276291 51.8239,0 Z m 0.304668,2.345462 c 0.121734,0.503792 0.252944,1.004622 0.455794,1.482235 l 0.0013,0.0012 v 0.0024 c 0.521178,1.189368 1.225499,2.228854 2.108498,3.11197 0.883341,0.883035 1.922627,1.587173 3.11197,2.108497 h 0.0024 l 0.0013,0.0013 c 0.477608,0.2028335 0.97842,0.3340375 1.482235,0.4557935 -0.504028,0.125553 -1.004558,0.262347 -1.482235,0.47151 l -0.0036,0.0013 c -1.18917,0.5054905 -2.228825,1.2014415 -3.111969,2.0843185 -0.883004,0.883081 -1.587321,1.922613 -2.108498,3.111969 v 0.0024 l -0.0013,0.0013 c -0.20285,0.477613 -0.33406,0.97844 -0.455793,1.482235 -0.125604,-0.504009 -0.262274,-1.00456 -0.471511,-1.482235 -0.505335,-1.190785 -1.20185,-2.231932 -2.085527,-3.11568 -0.882835,-0.882952 -1.92282,-1.578838 -3.111968,-2.0843185 l -0.0036,-0.0013 c -0.477682,-0.209116 -0.978265,-0.345914 -1.48225,-0.471468 0.503771,-0.121756 1.004637,-0.252963 1.482236,-0.4557935 l 0.0013,-0.0013 h 0.0024 c 1.189157,-0.521368 2.228774,-1.22544 3.111806,-2.108551 0.882795,-0.882905 1.579105,-1.922732 2.084318,-3.111969 l 0.0013,-0.0036 C 51.247403,3.35 51.384073,2.849447 51.509677,2.34544 Z"
     id="path14" />
</svg>
