<?xml version="1.0" encoding="UTF-8" standalone="no"?>
<!-- Created with Inkscape (http://www.inkscape.org/) -->

<svg
   width="471.5769mm"
   height="116.49188mm"
   viewBox="0 0 471.5769 116.49189"
   version="1.1"
   id="svg1"
   xml:space="preserve"
   inkscape:version="1.3.2 (091e20ef0f, 2023-11-25, custom)"
   sodipodi:docname="logo-Light.svg"
   inkscape:export-filename="LuxSCale.png"
   inkscape:export-xdpi="72"
   inkscape:export-ydpi="72"
   xmlns:inkscape="http://www.inkscape.org/namespaces/inkscape"
   xmlns:sodipodi="http://sodipodi.sourceforge.net/DTD/sodipodi-0.dtd"
   xmlns="http://www.w3.org/2000/svg"
   xmlns:svg="http://www.w3.org/2000/svg"><sodipodi:namedview
     id="namedview1"
     pagecolor="#ffffff"
     bordercolor="#000000"
     borderopacity="0.25"
     inkscape:showpageshadow="2"
     inkscape:pageopacity="0.0"
     inkscape:pagecheckerboard="0"
     inkscape:deskcolor="#d1d1d1"
     inkscape:document-units="mm"
     inkscape:zoom="0.26016034"
     inkscape:cx="153.75134"
     inkscape:cy="119.15729"
     inkscape:window-width="1920"
     inkscape:window-height="1048"
     inkscape:window-x="0"
     inkscape:window-y="0"
     inkscape:window-maximized="1"
     inkscape:current-layer="layer1" /><defs
     id="defs1"><linearGradient
       id="paint0_linear_958_15881"
       x1="-57.4049"
       y1="130.44099"
       x2="354.97"
       y2="30.368999"
       gradientUnits="userSpaceOnUse"
       gradientTransform="translate(711.20148,321.49779)"><stop
         stop-color="#439DDF"
         id="stop1" /><stop
         offset="0.524208"
         stop-color="#4F87ED"
         id="stop2" /><stop
         offset="0.781452"
         stop-color="#9476C5"
         id="stop3" /><stop
         offset="0.888252"
         stop-color="#BC688E"
         id="stop4" /><stop
         offset="1"
         stop-color="#D6645D"
         id="stop5" /></linearGradient></defs><g
     inkscape:label="Layer 1"
     inkscape:groupmode="layer"
     id="layer1"
     transform="translate(225.82343,-177.02449)"><g
       id="g5"
       transform="matrix(1.5935014,0,0,1.5935014,50.479407,-352.11905)"
       style="fill:#ffffff;stroke-width:0.627549"><path
         id="path4"
         style="font-weight:500;font-size:47.9957px;line-height:1.25;font-family:'IBM Plex Sans Arabic';-inkscape-font-specification:'IBM Plex Sans Arabic Medium';letter-spacing:0px;fill:#000000;stroke-width:0.166039"
         d="m -23.362806,338.67361 v 30.33303 c 0,1.63185 0.432123,2.91216 1.296045,3.84008 0.895919,0.89592 2.239958,1.34358 4.031795,1.34358 h 3.359485 v -4.27157 h -3.455603 v -31.24512 z m -150.030724,2.0159 v 33.50079 h 19.05413 v -4.7997 h -13.63069 v -28.70109 z m 132.224576,7.96695 c -2.43178,0 -4.399652,0.46425 -5.903516,1.39216 -1.503864,0.89592 -2.671737,2.04774 -3.503662,3.45561 l 3.119706,2.83187 c 0.639942,-0.99192 1.423879,-1.80798 2.351795,-2.44792 0.927916,-0.63994 2.127913,-0.95963 3.59978,-0.95963 1.759841,0 3.055693,0.41555 3.887618,1.24747 0.831924,0.83193 1.247469,2.01586 1.247469,3.55172 v 2.11202 h -4.511353 c -3.487683,0 -6.143637,0.62383 -7.967472,1.87172 -1.791837,1.24788 -2.687691,3.11991 -2.687691,5.61568 0,2.27179 0.688081,4.07956 2.063957,5.42344 1.407872,1.34388 3.407869,2.0159 5.999633,2.0159 1.823835,0 3.375646,-0.40001 4.65553,-1.19993 1.279884,-0.79993 2.159675,-1.98386 2.639632,-3.55172 h 0.239779 c 0.159986,1.21589 0.608171,2.22366 1.344104,3.02359 0.735933,0.76793 1.79189,1.15186 3.167765,1.15186 h 2.92747 v -4.27157 h -2.639632 v -12.52688 c 0,-2.81575 -0.86373,-4.97533 -2.591573,-6.4792 -1.727844,-1.50385 -4.207632,-2.25619 -7.439339,-2.25619 z m 41.27603301,0 c -1.79183761,0 -3.39183451,0.30414 -4.79970701,0.91209 -1.4078724,0.60794 -2.6073533,1.48773 -3.5992635,2.63963 -0.9919102,1.1199 -1.7603015,2.49606 -2.3042525,4.12792 -0.511953,1.59985 -0.767912,3.39155 -0.767912,5.37538 0,1.98382 0.255959,3.79159 0.767912,5.42344 0.543951,1.59986 1.3123423,2.97602 2.3042525,4.12791 0.9919102,1.1199 2.1913911,1.98363 3.5992635,2.59158 1.4078725,0.60794 3.0078694,0.91209 4.79970701,0.91209 2.33578849,0 4.38345379,-0.44819 6.14329429,-1.34411 1.7598405,-0.92792 3.1038785,-2.15952 4.0317957,-3.69538 l -3.0716472,-3.0241 c -0.7359338,1.15189 -1.6317872,2.06381 -2.6876916,2.73575 -1.0559043,0.67193 -2.3517571,1.0082 -3.88761809,1.0082 -2.11180861,0 -3.74392941,-0.60828 -4.89582511,-1.82418 -1.1198985,-1.24788 -1.679484,-2.8313 -1.679484,-4.75113 v -0.81597 h 17.134355 v -1.96784 c 0,-1.72783 -0.239896,-3.3439 -0.719853,-4.84776 -0.447959,-1.50387 -1.1360402,-2.81578 -2.0639572,-3.93568 -0.927915,-1.1519 -2.0957892,-2.04775 -3.5036617,-2.68769 -1.3758754,-0.63994 -2.9758722,-0.96015 -4.79970709,-0.96015 z M -152.27234,349.23265 v 15.88637 c 0,3.10373 0.70414,5.48766 2.11202,7.1515 1.43987,1.66386 3.45541,2.49598 6.04717,2.49598 1.02391,0 1.91976,-0.12798 2.68769,-0.38396 0.79993,-0.25597 1.47195,-0.59224 2.0159,-1.00821 0.57595,-0.44796 1.0402,-0.95987 1.39216,-1.53582 0.38397,-0.57595 0.6876,-1.16766 0.91158,-1.7756 h 0.19223 v 4.12739 h 5.23121 v -24.95765 h -5.23121 v 16.70234 c 0,0.73594 -0.1601,1.37583 -0.48007,1.91978 -0.28797,0.54395 -0.68797,0.99213 -1.19993,1.34411 -0.47995,0.35196 -1.04005,0.62399 -1.68,0.81597 -0.63994,0.15998 -1.2959,0.23978 -1.96784,0.23978 -3.19971,0 -4.79919,-1.93575 -4.79919,-5.8074 v -15.21458 z m 25.53384,0 8.54315,12.33465 -8.78344,12.623 h 5.56762 l 5.99963,-9.07128 h 0.14366 l 5.75986,9.07128 h 6.04717 l -8.68732,-12.67054 8.54366,-12.28711 h -5.56762 l -5.75934,8.68733 h -0.14417 l -5.61568,-8.68733 z m 126.84557901,3.50367 c 1.72784359,0 3.08794429,0.59222 4.07985439,1.77611 0.9919101,1.1519 1.4877645,2.68765 1.4877645,4.60748 v 0.48007 H -5.940097 v -0.33641 c 0,-0.95992 0.1435243,-1.8397 0.4314982,-2.63964 0.2879739,-0.79992 0.6879731,-1.48801 1.1999267,-2.06395 0.5439507,-0.57595 1.1838461,-1.02362 1.9197795,-1.34359 0.7679304,-0.31997 1.60005271,-0.48007 2.49597161,-0.48007 z M -40.784998,363.19924 h 4.415234 v 3.59978 c 0,1.2159 -0.527978,2.19206 -1.583883,2.92799 -1.055904,0.70393 -2.399426,1.05575 -4.031278,1.05575 -1.311881,0 -2.351776,-0.27203 -3.119706,-0.81597 -0.735934,-0.57595 -1.103809,-1.42362 -1.103809,-2.54352 v -0.86403 c 0,-2.23979 1.807769,-3.36 5.423442,-3.36 z"
         sodipodi:nodetypes="cscsccccccccccccscccsssscscscsscccscccsssssccsccsscccsscsccscccscscscccccccccscccsscccccccccccccccccscsccssccsscscscsss" /><path
         id="path5"
         style="font-weight:300;font-size:47.9957px;line-height:1.25;font-family:'IBM Plex Sans Arabic';-inkscape-font-specification:'IBM Plex Sans Arabic Light';letter-spacing:0px;fill:#b3b3b3;fill-opacity:1;stroke-width:0.166039"
         d="m 29.605965,340.68951 -11.85509,33.50079 h 2.879927 l 3.64784,-10.41486 h 14.254427 l 3.647839,10.41486 h 3.023588 L 33.301347,340.68951 Z m 19.870105,0 v 2.39985 h 4.895825 v 28.70109 H 49.47607 v 2.39985 h 12.671061 v -2.39985 h -4.895825 v -28.70109 h 4.895825 v -2.39985 z m -18.190104,2.73575 h 0.191719 l 6.287472,17.8542 H 24.998494 Z" /><path
         id="text67"
         style="font-weight:bold;font-size:66.5962px;line-height:1.25;font-family:Bison;-inkscape-font-specification:'Bison Bold';letter-spacing:0px;fill:#eb1b26;fill-opacity:1;stroke-width:0.166039"
         d="m -90.031954,332.06343 c -2.975917,0 -5.373146,0.84695 -7.191763,2.54158 -2.06661,1.98394 -3.100123,4.69162 -3.100123,8.12218 v 1.05358 c 0,1.94261 0.39287,3.76138 1.178182,5.45601 0.785312,1.69461 1.921501,3.20343 3.40946,4.52606 0.909308,0.7853 2.33569,1.69445 4.278303,2.72776 1.405294,0.78531 2.272983,1.3228 2.603641,1.61212 1.529291,1.40529 2.293821,3.05823 2.293821,4.95952 v 2.72824 c 0,1.5293 -0.309958,2.56233 -0.92994,3.09964 -0.495987,0.49599 -1.342947,0.74425 -2.541581,0.74425 -1.157301,0 -2.004743,-0.24826 -2.542062,-0.74425 -0.619982,-0.57865 -0.92994,-1.61168 -0.92994,-3.09964 v -5.64218 h -6.819884 v 5.64218 c 0,3.43057 1.033513,6.13776 3.100123,8.12171 1.818617,1.69462 4.215846,2.54206 7.191763,2.54206 2.975919,0 5.373147,-0.84744 7.191763,-2.54206 2.06661,-1.98395 3.099641,-4.69114 3.099641,-8.12171 v -2.72824 c 0,-3.9679 -1.52906,-7.31572 -4.587641,-10.04365 -0.826645,-0.74397 -2.314728,-1.69457 -4.464003,-2.85188 -1.198634,-0.66131 -2.004619,-1.15734 -2.417941,-1.488 -1.529292,-1.36396 -2.293821,-2.99666 -2.293821,-4.89794 v -1.05358 c 0,-1.48796 0.309958,-2.52146 0.92994,-3.10012 0.537319,-0.49599 1.384761,-0.74376 2.542062,-0.74376 1.198634,0 2.045594,0.24777 2.541581,0.74376 0.619982,0.53732 0.92994,1.57083 0.92994,3.10012 v 3.78182 h 6.819883 v -3.78182 c 0,-3.43056 -1.033031,-6.13824 -3.099641,-8.12218 -1.818616,-1.69463 -4.215844,-2.54158 -7.191763,-2.54158 z m 24.117351,0 c -2.893254,0 -5.290482,0.84695 -7.191763,2.54158 -2.06661,2.06661 -3.100122,4.77428 -3.100122,8.12218 v 23.06329 c 0,3.34791 1.033512,6.05509 3.100122,8.12171 1.901281,1.69462 4.298509,2.54206 7.191763,2.54206 2.975918,0 5.373146,-0.84744 7.191763,-2.54206 2.06661,-1.98395 3.099641,-4.69114 3.099641,-8.12171 v -5.58012 h -6.819884 v 5.58012 c 0,1.5293 -0.289228,2.56233 -0.867879,3.09964 -0.537319,0.49599 -1.405008,0.74425 -2.603641,0.74425 -1.157302,0 -2.004743,-0.24826 -2.542062,-0.74425 -0.619982,-0.57865 -0.92994,-1.61168 -0.92994,-3.09964 v -23.06329 c 0,-1.48796 0.309958,-2.52146 0.92994,-3.10012 0.537319,-0.49599 1.38476,-0.74376 2.542062,-0.74376 1.198633,0 2.066322,0.24777 2.603641,0.74376 0.578651,0.53732 0.867879,1.57083 0.867879,3.10012 v 3.84389 h 6.819884 v -3.84389 c 0,-3.43056 -1.033031,-6.13824 -3.099641,-8.12218 -1.818617,-1.69463 -4.215845,-2.54158 -7.191763,-2.54158 z" /><path
         id="text1"
         style="font-size:23.269px;line-height:1.25;font-family:'IBM Plex Sans Arabic';-inkscape-font-specification:'IBM Plex Sans Arabic';letter-spacing:0px;fill:#000000;fill-opacity:1;stroke-width:0.104198"
         d="m 76.820403,357.94869 v 16.24166 h 7.376411 c 0.604993,0 1.16339,-0.11625 1.675307,-0.34894 0.511917,-0.2482 0.954062,-0.58194 1.326366,-1.00078 0.372304,-0.41884 0.659338,-0.91519 0.861003,-1.48916 0.217177,-0.57396 0.325916,-1.1944 0.325916,-1.86145 0,-0.66705 -0.116576,-1.23328 -0.349265,-1.69866 -0.217178,-0.48089 -0.488539,-0.86883 -0.814305,-1.16357 -0.325765,-0.31025 -0.674844,-0.53524 -1.047148,-0.67485 -0.356791,-0.1396 -0.682685,-0.21699 -0.977425,-0.23252 v -0.13977 c 0.263715,-0.0465 0.55075,-0.13177 0.861003,-0.25587 0.310253,-0.13962 0.597288,-0.34109 0.861003,-0.60481 0.263715,-0.27923 0.480869,-0.62831 0.651508,-1.04715 0.17064,-0.41884 0.255869,-0.93087 0.255869,-1.53586 0,-1.27204 -0.387613,-2.28825 -1.163246,-3.04837 -0.760119,-0.76012 -1.815193,-1.1399 -3.164793,-1.1399 z m 28.644317,0.90738 v 2.23374 c 0,0.40333 -0.0777,0.69037 -0.23284,0.861 -0.13962,0.15513 -0.41098,0.23285 -0.81431,0.23285 h -1.11687 v 1.62861 h 1.97787 v 8.40021 c 0,0.58947 0.16296,1.07048 0.48872,1.44278 0.34128,0.3568 0.83763,0.53509 1.48916,0.53509 h 2.32681 v -1.62893 h -2.44323 v -8.74915 h 2.62938 v -1.62861 h -2.62938 v -3.32759 z m -26.689468,0.8143 h 4.490835 c 0.775633,0 1.380725,0.19397 1.815079,0.58179 0.434353,0.38781 0.651508,0.9462 0.651508,1.6753 v 0.79128 c 0,0.7291 -0.217155,1.28749 -0.651508,1.67531 -0.434354,0.38781 -1.039446,0.58179 -1.815079,0.58179 h -4.490835 z m 17.568026,2.23407 c -0.822171,0 -1.566699,0.14727 -2.233743,0.44201 -0.651532,0.29474 -1.217764,0.72122 -1.698657,1.27967 -0.465379,0.54295 -0.830131,1.20224 -1.093846,1.97787 -0.248203,0.77564 -0.372291,1.63674 -0.372291,2.58301 0,0.96178 0.124088,1.8304 0.372291,2.60604 0.263715,0.76012 0.628467,1.41941 1.093846,1.97787 0.480893,0.54294 1.047125,0.9619 1.698657,1.25664 0.667044,0.29475 1.411572,0.44202 2.233743,0.44202 1.132423,0 2.109779,-0.24818 2.93195,-0.74458 0.822172,-0.51192 1.426942,-1.17905 1.814752,-2.00123 l -1.32604,-0.95407 c -0.310253,0.66704 -0.752398,1.17907 -1.326366,1.53586 -0.558455,0.35679 -1.217754,0.53508 -1.977874,0.53508 -0.558456,0 -1.062645,-0.0931 -1.512512,-0.27921 -0.434354,-0.18616 -0.806618,-0.44217 -1.116871,-0.76793 -0.29474,-0.32577 -0.527568,-0.70587 -0.698207,-1.14022 -0.155126,-0.44987 -0.232519,-0.93055 -0.232519,-1.44247 v -0.55843 h 8.632729 v -0.88436 c 0,-0.85319 -0.12409,-1.63657 -0.37229,-2.35016 -0.23269,-0.71358 -0.57393,-1.32618 -1.0238,-1.8381 -0.449866,-0.52743 -0.992914,-0.93856 -1.628932,-1.2333 -0.636019,-0.29474 -1.357362,-0.44201 -2.16402,-0.44201 z m 20.220762,0 c -1.08589,0 -1.98553,0.2325 -2.69911,0.69788 -0.71358,0.44987 -1.23344,1.00075 -1.55921,1.65228 l 1.11687,1.04683 c 0.32577,-0.54295 0.72905,-0.97726 1.20995,-1.30302 0.49639,-0.32577 1.10932,-0.48871 1.83842,-0.48871 0.96179,0 1.67529,0.22499 2.14067,0.67486 0.46538,0.44986 0.69821,1.10133 0.69821,1.95452 v 1.18692 h -2.37351 c -1.75294,0 -3.04834,0.30238 -3.88603,0.90738 -0.82217,0.60499 -1.23329,1.47361 -1.23329,2.60603 0,1.11691 0.34908,2.0012 1.04715,2.65273 0.71358,0.65154 1.70661,0.97743 2.97864,0.97743 0.83769,0 1.55903,-0.18613 2.16402,-0.55844 0.605,-0.3723 1.0393,-0.9307 1.30302,-1.67531 h 0.1161 c 0.0776,0.55846 0.26402,1.02379 0.55876,1.39609 0.31025,0.37231 0.81412,0.55844 1.51218,0.55844 h 1.04715 v -1.62893 h -1.37274 v -6.60848 c 0,-1.27204 -0.40328,-2.26475 -1.20994,-2.97833 -0.80666,-0.71358 -1.93912,-1.07017 -3.39731,-1.07017 z m -20.220762,1.55888 c 0.961784,0 1.729498,0.3259 2.303466,0.97743 0.589481,0.63602 0.884352,1.48896 0.884352,2.55933 v 0.2562 h -6.631505 v -0.16312 c 0,-0.52743 0.08523,-1.00811 0.255868,-1.44247 0.17064,-0.44986 0.403143,-0.8378 0.697883,-1.16357 0.310253,-0.32576 0.675005,-0.57394 1.093846,-0.74458 0.418842,-0.18615 0.884172,-0.27922 1.39609,-0.27922 z m -17.568026,3.18782 h 4.816427 c 0.837684,0 1.496983,0.21716 1.977875,0.65151 0.480892,0.41885 0.721556,1.03929 0.721556,1.86145 v 0.79128 c 0,0.82218 -0.240664,1.45045 -0.721556,1.8848 -0.480892,0.41884 -1.140191,0.62816 -1.977875,0.62816 h -4.816427 z m 38.067998,2.07095 h 2.46659 v 1.97787 c 0,0.31026 -0.0777,0.59729 -0.23284,0.86101 -0.15513,0.26371 -0.37228,0.49621 -0.65151,0.69788 -0.27923,0.20167 -0.61264,0.35678 -1.00045,0.46536 -0.38782,0.10859 -0.81461,0.16312 -1.27999,0.16312 -0.7291,0 -1.31068,-0.16294 -1.74503,-0.48871 -0.41885,-0.32576 -0.62816,-0.78325 -0.62816,-1.37274 v -0.48871 c 0,-0.58948 0.24034,-1.03946 0.72123,-1.34972 0.4964,-0.31025 1.27979,-0.46536 2.35016,-0.46536 z" /></g><path
       style="fill:#000000;fill-opacity:1;stroke-width:0.264582"
       d="m 136.70959,270.25597 v 2.22271 h 3.18812 v -2.22271 z m 28.72727,0 v 2.22271 h 3.1882 v -2.22271 z m -76.728,0.65583 c -1.17794,4e-5 -2.076525,0.35212 -2.695871,1.05647 -0.607209,0.69222 -0.910534,1.70635 -0.910534,3.04221 0,1.23874 0.521899,2.36835 1.566331,3.38849 l 1.348301,1.3477 c 0.485751,0.47362 0.819336,0.82626 1.001518,1.057 0.194302,0.21859 0.352342,0.49777 0.473815,0.83783 0.121502,0.3279 0.181966,0.74669 0.181966,1.25676 0,0.38861 -0.05429,0.6678 -0.163626,0.83782 -0.109294,0.15788 -0.303856,0.2369 -0.583196,0.2369 -0.497915,0 -0.746837,-0.38846 -0.746837,-1.1657 v -1.94922 h -3.078272 v 1.53026 c 0,1.56664 0.315647,2.70187 0.947143,3.40623 0.631496,0.70437 1.657443,1.05702 3.07833,1.05702 1.299442,0 2.228316,-0.39468 2.786968,-1.18407 0.570788,-0.80152 0.856706,-1.97376 0.856706,-3.51608 0,-0.69222 -0.08531,-1.28705 -0.255241,-1.78496 -0.170003,-0.51008 -0.394796,-0.94732 -0.674122,-1.31164 -0.279311,-0.37647 -0.631409,-0.77118 -1.056452,-1.18409 l -1.821572,-1.74886 c -0.582923,-0.54649 -0.874414,-1.0746 -0.874414,-1.58466 0,-0.23074 0.06061,-0.41294 0.181967,-0.54653 0.121502,-0.13357 0.303612,-0.20029 0.546473,-0.20029 0.206467,0 0.364564,0.0604 0.473873,0.18196 0.121502,0.12151 0.182038,0.28516 0.182038,0.4916 l 0.0181,1.07479 h 3.187639 c 0,-1.59091 -0.309515,-2.75646 -0.92886,-3.49727 -0.619346,-0.75291 -1.63343,-1.12963 -3.042095,-1.12967 h -5.7e-5 z m 43.15523,0 c -1.32375,0 -2.29528,0.39467 -2.91464,1.18406 -0.61935,0.78938 -0.92934,1.9616 -0.92934,3.51609 v 7.21359 c 0,1.25088 0.34025,2.23475 1.02033,2.95129 0.69223,0.7165 1.60934,1.07474 2.75092,1.07474 2.63532,0 3.95274,-1.31187 3.95274,-3.93504 v -2.95123 h -3.15152 v 2.82364 c 0,0.78937 -0.24273,1.18404 -0.72849,1.18404 -0.24289,0 -0.4251,-0.0908 -0.54655,-0.27295 -0.1215,-0.19433 -0.18196,-0.4982 -0.18196,-0.91109 v -7.85111 c 0,-0.37649 0.0481,-0.66186 0.14531,-0.85615 0.10929,-0.19432 0.30386,-0.29129 0.5832,-0.29129 0.26716,0 0.4555,0.0846 0.5648,0.25468 0.10929,0.17002 0.16369,0.48001 0.16369,0.92936 v 2.31316 h 3.11493 v -2.69599 c 0,-1.19016 -0.35207,-2.10114 -1.05645,-2.73265 -0.70437,-0.63151 -1.63329,-0.94715 -2.78697,-0.94715 z m 51.60711,0 c -1.32373,0 -2.29526,0.39467 -2.91461,1.18406 -0.61936,0.78938 -0.92888,1.9616 -0.92888,3.51609 v 7.21359 c 0,1.25088 0.34032,2.23475 1.0204,2.95129 0.69223,0.7165 1.6088,1.07474 2.75038,1.07474 2.63532,0 3.95328,-1.31187 3.95328,-3.93504 v -2.95123 h -3.15151 v 2.82364 c 0,0.78937 -0.24329,1.18404 -0.72906,1.18404 -0.24287,0 -0.42458,-0.0908 -0.54604,-0.27295 -0.1215,-0.19433 -0.18253,-0.4982 -0.18253,-0.91109 v -7.85111 c 0,-0.37649 0.0489,-0.66186 0.14599,-0.85615 0.1093,-0.19432 0.30333,-0.29129 0.58264,-0.29129 0.26719,0 0.45549,0.0846 0.5648,0.25468 0.10929,0.17002 0.16426,0.48001 0.16426,0.92936 v 2.31316 h 3.11492 v -2.69599 c 0,-1.19016 -0.35208,-2.10114 -1.05645,-2.73265 -0.70438,-0.63151 -1.63381,-0.94715 -2.78753,-0.94715 z m -89.715846,0.055 v 15.73889 h 3.278607 v -10.09216 c 0,-0.26718 0.06061,-0.49145 0.181981,-0.67364 0.133566,-0.1943 0.310131,-0.29185 0.52875,-0.29185 0.25501,0 0.449012,0.0915 0.582593,0.27359 0.133566,0.18217 0.200292,0.41876 0.200292,0.71022 v 10.07384 h 3.188203 v -10.27414 c 0,-0.99584 -0.23096,-1.77905 -0.69245,-2.34982 -0.4615,-0.57079 -1.141491,-0.85614 -2.040206,-0.85614 -0.959379,0 -1.6091,0.48551 -1.949163,1.45704 v -3.71583 z m 28.162406,0.0908 -3.09652,2.3e-4 v 2.82365 h -0.89277 v 2.42248 h 0.89277 v 8.32498 c 0,0.77724 0.15752,1.34234 0.47325,1.69453 0.31577,0.35219 0.89263,0.52819 1.73059,0.52819 0.3279,0 0.66203,-0.0307 1.00206,-0.0915 0.35219,-0.0485 0.61959,-0.0968 0.80178,-0.14538 v -2.18612 c -0.0365,0 -0.1093,0.006 -0.21864,0.0183 -0.10929,0.0129 -0.22479,0.0181 -0.34622,0.0181 -0.15791,0 -0.2549,-0.055 -0.29129,-0.16424 -0.0365,-0.1093 -0.055,-0.27918 -0.055,-0.50994 v -7.48711 h 0.91108 v -2.42246 h -0.91108 z m 51.60774,0 -3.09721,2.3e-4 v 2.82365 h -0.89275 v 2.42248 h 0.89275 v 8.32498 c 0,0.77724 0.15813,1.34234 0.47388,1.69453 0.31575,0.35219 0.89261,0.52819 1.73057,0.52819 0.3279,0 0.66198,-0.0307 1.00202,-0.0915 0.3522,-0.0485 0.61907,-0.0968 0.80122,-0.14538 v -2.18612 c -0.0365,0 -0.1093,0.006 -0.21858,0.0183 -0.10929,0.0129 -0.22478,0.0181 -0.34622,0.0181 -0.1579,0 -0.25488,-0.055 -0.29129,-0.16424 -0.0365,-0.1093 -0.0545,-0.27918 -0.0545,-0.50994 v -7.48711 h 0.91048 v -2.42246 h -0.91048 z m -56.03424,2.1497 c -0.58292,0 -1.07463,0.14567 -1.47539,0.43722 -0.38862,0.27931 -0.66217,0.68017 -0.82004,1.20237 V 273.371 h -3.18765 v 13.3347 h 3.18765 v -10.2015 c 0,-0.17 0.26744,-0.31577 0.80177,-0.4372 0.5465,-0.13357 1.04432,-0.2003 1.49366,-0.2003 z m 29.14623,0 c -0.58293,0 -1.07457,0.14567 -1.47533,0.43722 -0.38863,0.27931 -0.66168,0.68017 -0.81955,1.20237 V 273.371 h -3.18813 v 13.3347 h 3.18813 v -10.2015 c 0,-0.17 0.26688,-0.31577 0.80121,-0.4372 0.54651,-0.13357 1.04432,-0.2003 1.49367,-0.2003 z m -39.80318,0.0184 c -1.23875,0 -2.21595,0.37618 -2.93248,1.12912 -0.70437,0.74082 -1.05695,1.74259 -1.05695,3.0056 v 5.35598 c 0,2.75678 1.32979,4.13528 3.98943,4.13528 2.65958,0 3.98984,-1.3785 3.98984,-4.13528 v -5.35598 c 0,-1.26301 -0.35823,-2.26478 -1.07473,-3.0056 -0.7044,-0.75294 -1.67642,-1.12912 -2.91511,-1.12912 z m 44.5577,0 c -1.04442,0 -1.86406,0.18221 -2.45913,0.54652 -0.58294,0.36432 -1.00166,0.91088 -1.2567,1.63954 -0.2429,0.71652 -0.36456,1.65165 -0.36456,2.80536 v 4.11646 c 0,1.53019 0.32182,2.66594 0.96548,3.40677 0.64363,0.74079 1.69418,1.11133 3.15152,1.11133 1.12943,0 2.04598,-0.31 2.75036,-0.92936 0.71652,-0.63151 1.07528,-1.49374 1.07528,-2.58673 v -2.33142 h -3.2425 l 0.0176,2.24044 c 0.0129,0.32791 -0.0485,0.59534 -0.18203,0.80177 -0.1215,0.20646 -0.30977,0.30963 -0.56481,0.30963 -0.25504,0 -0.449,-0.10313 -0.58258,-0.30963 -0.1215,-0.21859 -0.18258,-0.47982 -0.18258,-0.78344 v -6.46676 c 0,-0.74081 0.2613,-1.1114 0.7835,-1.1114 0.27934,0 0.46764,0.0971 0.5648,0.29129 0.0972,0.18216 0.14599,0.44959 0.14599,0.80177 v 1.87651 h 3.2425 v -2.0407 c 0,-1.0687 -0.3582,-1.90066 -1.07472,-2.49575 -0.71652,-0.59506 -1.64595,-0.8922 -2.78753,-0.8922 z m 40.82361,0 c -1.23872,0 -2.21643,0.37618 -2.93296,1.12912 -0.70437,0.74082 -1.05646,1.74259 -1.05646,3.0056 v 5.35598 c 0,2.75678 1.32981,4.13528 3.98942,4.13528 2.65961,0 3.98935,-1.3785 3.98935,-4.13528 v -5.35598 c 0,-1.26301 -0.35828,-2.26478 -1.07479,-3.0056 -0.70437,-0.75294 -1.67584,-1.12912 -2.91456,-1.12912 z m 10.52883,0 c -0.64365,0 -1.14148,0.13959 -1.49366,0.41889 -0.35219,0.27931 -0.60111,0.70428 -0.74684,1.27508 v -1.5486 h -3.11492 v 13.33471 h 3.11492 v -9.41799 c 0,-0.44936 0.0668,-0.83171 0.2003,-1.14745 0.13357,-0.32791 0.36456,-0.49214 0.69245,-0.49214 0.25504,0 0.41873,0.11547 0.4916,0.34623 0.0849,0.23073 0.12768,0.53455 0.12768,0.91102 v 9.80033 h 3.18763 v -9.5817 c 0,-0.41291 0.0672,-0.76548 0.20086,-1.05694 0.13357,-0.30363 0.35169,-0.455 0.6553,-0.455 0.43721,0 0.65579,0.43104 0.65579,1.29331 v 9.80033 h 3.20646 l 0.036,-9.74594 c 0,-1.21444 -0.20627,-2.13718 -0.61918,-2.76871 -0.40077,-0.64364 -1.12338,-0.96541 -2.1678,-0.96541 -0.58292,0 -1.03818,0.1093 -1.36608,0.32789 -0.32788,0.20645 -0.62556,0.54005 -0.89275,1.00153 -0.15787,-0.41292 -0.43086,-0.73467 -0.81948,-0.96541 -0.37648,-0.24289 -0.8261,-0.36401 -1.3483,-0.36401 z m 13.60764,0 c -0.81366,0 -1.45105,0.28531 -1.91255,0.8561 v -0.71073 h -3.24257 v 15.99407 h 3.24257 v -3.18758 c 0.41292,0.44933 1.02003,0.67412 1.82157,0.67412 0.83795,0 1.46359,-0.20063 1.87649,-0.6014 0.4129,-0.41294 0.67977,-0.94719 0.80123,-1.60299 0.1215,-0.66794 0.18252,-1.52399 0.18252,-2.5684 v -4.93649 c 0,-1.22658 -0.20684,-2.18633 -0.61974,-2.87856 -0.40076,-0.69223 -1.11725,-1.03814 -2.14952,-1.03814 z m 7.79673,0 c -1.38445,0 -2.38623,0.27918 -3.0056,0.83783 -0.60721,0.55864 -0.91104,1.49368 -0.91104,2.80529 v 0.43723 h 3.09716 v -0.80172 c 0,-0.26715 0.0606,-0.47963 0.18197,-0.63751 0.13356,-0.1579 0.28552,-0.23697 0.45554,-0.23697 0.19432,0 0.35802,0.0975 0.4916,0.29185 0.14569,0.18216 0.21863,0.44901 0.21863,0.80121 v 1.32997 0.0366 l -0.87449,0.29129 c -0.99582,0.31577 -1.7364,0.60731 -2.22217,0.87449 -0.48576,0.25504 -0.86806,0.66199 -1.14738,1.22065 -0.26717,0.55861 -0.40115,1.35977 -0.40115,2.40421 0,1.27512 0.18831,2.25895 0.5648,2.95116 0.38862,0.68009 1.09892,1.0204 2.13118,1.0204 0.47363,0 0.88065,-0.15193 1.22071,-0.45554 0.35219,-0.30361 0.60723,-0.72853 0.76511,-1.27504 v 1.58466 h 3.16986 v -10.16481 c 0,-1.05656 -0.34646,-1.87003 -1.03867,-2.44082 -0.69223,-0.58293 -1.59092,-0.87443 -2.69606,-0.87443 z m 10.14656,0 c -0.5465,0 -0.98373,0.16988 -1.31164,0.50993 -0.3279,0.34003 -0.55832,0.78346 -0.6919,1.32996 v -1.69452 h -3.1882 v 13.33471 h 3.1882 v -9.38139 c 0,-0.49792 0.0488,-0.8926 0.14599,-1.18405 0.10929,-0.30362 0.32739,-0.45555 0.65529,-0.45555 0.24289,0 0.41945,0.10312 0.52875,0.30964 0.12151,0.20646 0.18197,0.45535 0.18197,0.74683 v 9.96452 h 3.13326 V 276.4133 c 0,-1.02011 -0.21865,-1.80328 -0.65585,-2.34976 -0.42504,-0.55865 -1.08707,-0.83782 -1.98574,-0.83782 z m -97.58579,0.14537 v 13.33471 h 3.18812 v -13.3347 z m 19.61946,0 v 9.92847 c 0,1.17804 0.1822,2.06431 0.54653,2.65939 0.37647,0.59506 1.0621,0.89275 2.05791,0.89275 0.57077,0 1.00192,-0.12164 1.29339,-0.36456 0.29145,-0.24288 0.54594,-0.64368 0.76454,-1.20231 v 1.42094 h 3.1882 v -13.33468 h -3.16986 l -0.0184,9.29041 v 0.1093 c 0,0.51004 -0.0421,0.90465 -0.12696,1.18399 -0.085,0.26717 -0.29185,0.40116 -0.61975,0.40116 -0.24286,0 -0.42507,-0.0728 -0.54652,-0.21857 -0.10929,-0.1579 -0.16369,-0.4191 -0.16369,-0.78345 v -0.69244 -9.29047 z m 9.10781,0 v 13.33471 h 3.1882 v -13.3347 z m 72.26529,0 2.0768,13.06173 c 0.0129,0.0487 0.0176,0.11518 0.0176,0.20024 0,0.18218 -0.10929,0.27302 -0.32789,0.27302 h -1.52979 v 2.02188 h 3.58826 c 0.55863,0 0.96561,-0.12739 1.22065,-0.38229 0.26716,-0.24287 0.4432,-0.62524 0.52819,-1.14743 l 2.47741,-14.02715 h -3.05999 l -0.71072,6.50337 -0.34622,3.31578 -0.29129,-3.31578 -0.60097,-6.50337 z m -130.86784,2.31371 c 0.49791,0 0.74731,0.38853 0.74731,1.16578 v 6.52163 c 0,0.31576 -0.061,0.56468 -0.18253,0.74684 -0.1215,0.18218 -0.30977,0.27303 -0.56478,0.27303 -0.25504,0 -0.44288,-0.0909 -0.56433,-0.27303 -0.1215,-0.18216 -0.18258,-0.43108 -0.18258,-0.74684 v -6.52163 c 0,-0.77725 0.24895,-1.16578 0.74691,-1.16578 z m 85.38131,0 c 0.49791,0 0.74678,0.38853 0.74678,1.16578 v 6.52163 c 0,0.31576 -0.0611,0.56468 -0.18253,0.74684 -0.1215,0.18218 -0.30921,0.27303 -0.56425,0.27303 -0.25505,0 -0.4434,-0.0909 -0.56486,-0.27303 -0.12151,-0.18216 -0.18197,-0.43108 -0.18197,-0.74684 v -6.52163 c 0,-0.77725 0.24891,-1.16578 0.74683,-1.16578 z m 22.9707,0.0366 h 5e-5 c 0.30362,0 0.49814,0.12121 0.58314,0.36401 0.085,0.24288 0.12769,0.59545 0.12769,1.05694 v 5.665 c 0,0.51005 -0.0425,0.89861 -0.12769,1.16577 -0.085,0.26717 -0.27339,0.40116 -0.56487,0.40116 -0.30359,0 -0.50986,-0.12165 -0.61917,-0.36455 -0.0971,-0.25504 -0.14599,-0.60711 -0.14599,-1.05646 v -5.84758 c 0,-0.92297 0.24892,-1.38429 0.74684,-1.38429 z m 9.47244,3.89837 v 3.71584 c 0,0.29146 -0.0543,0.54038 -0.16372,0.74683 -0.0971,0.19429 -0.26699,0.29184 -0.50986,0.29184 -0.47363,0 -0.71077,-0.39467 -0.71077,-1.18404 v -1.71286 c 0,-0.49791 0.10929,-0.88642 0.32788,-1.16571 0.23075,-0.27933 0.58284,-0.50977 1.05647,-0.6919 z"
       id="path2"
       sodipodi:nodetypes="ccccccccccscsccccscssccssscsccccscscccccscssssscssccsscsscscsccssssssscssccsscsscsssccsssscccscsssccssscccccccccsssccccscscccccccccccsssccccscsccccccccccccsccccccccccscccscssssscssccsssscsccccscssscsccssssscssssscssscccccscscsccscssccccscccsssccccccsccsscsscsccscscscccccscsccccscsssscccccscscsccscssccccccscssccccccscscsccccccccccssccscccccccccssscssssssssssssssssssscscssscscssscc" /><path
       style="font-size:14.8747px;line-height:1.25;font-family:'IBM Plex Sans Arabic';-inkscape-font-specification:'IBM Plex Sans Arabic';letter-spacing:0px;stroke-width:0.264583"
       d="m 5.9938042,282.61029 v -7.23785 h 2.8826995 q 0.9747258,0 1.4931973,0.55994 0.52884,0.54958 0.52884,1.51394 0,0.96436 -0.52884,1.52431 -0.5184715,0.54958 -1.4931973,0.54958 h -2.011668 v 3.09008 z m 0.8710315,-3.85742 h 2.011668 q 0.5184711,0 0.7984455,-0.26961 0.2903434,-0.2696 0.2903434,-0.76734 v -0.5392 q 0,-0.49774 -0.2903434,-0.76734 -0.2799744,-0.2696 -0.7984455,-0.2696 h -2.011668 z m 7.1445363,3.98186 q -0.53921,0 -0.985095,-0.19702 -0.445886,-0.19702 -0.767338,-0.55995 -0.311082,-0.3733 -0.487362,-0.8814 -0.17628,-0.51847 -0.17628,-1.16138 0,-0.63253 0.17628,-1.151 0.17628,-0.51848 0.487362,-0.8814 0.321452,-0.3733 0.767338,-0.57032 0.445885,-0.19702 0.985095,-0.19702 0.53921,0 0.974725,0.19702 0.445886,0.19702 0.767337,0.57032 0.321453,0.36292 0.497733,0.8814 0.17628,0.51847 0.17628,1.151 0,0.64291 -0.17628,1.16138 -0.17628,0.5081 -0.497733,0.8814 -0.321451,0.36293 -0.767337,0.55995 -0.435515,0.19702 -0.974725,0.19702 z m 0,-0.73624 q 0.674012,0 1.099159,-0.41477 0.425146,-0.41477 0.425146,-1.26507 v -0.76734 q 0,-0.85029 -0.425146,-1.26507 -0.425147,-0.41477 -1.099159,-0.41477 -0.674013,0 -1.099159,0.41477 -0.425146,0.41478 -0.425146,1.26507 v 0.76734 q 0,0.8503 0.425146,1.26507 0.425146,0.41477 1.099159,0.41477 z m 3.173045,-4.73882 h 0.808815 l 0.570318,2.31238 0.570319,2.34349 h 0.02074 l 0.653273,-2.34349 0.674013,-2.31238 h 0.736228 l 0.694752,2.31238 0.663643,2.34349 h 0.02074 l 0.549579,-2.34349 0.580689,-2.31238 h 0.777706 l -1.420611,5.35062 h -1.026572 l -0.746599,-2.57161 -0.466624,-1.628 h -0.02074 l -0.456255,1.628 -0.746598,2.57161 h -1.005834 z m 10.48349,5.47506 q -0.549579,0 -0.995464,-0.19702 -0.435515,-0.19702 -0.756968,-0.55995 -0.311082,-0.3733 -0.487363,-0.8814 -0.16591,-0.51847 -0.16591,-1.16138 0,-0.63253 0.16591,-1.151 0.176281,-0.51848 0.487363,-0.8814 0.321453,-0.3733 0.756968,-0.57032 0.445885,-0.19702 0.995464,-0.19702 0.53921,0 0.964357,0.19702 0.425146,0.19702 0.725859,0.54958 0.300713,0.34219 0.456255,0.81918 0.16591,0.477 0.16591,1.04731 v 0.39404 h -3.847055 v 0.24887 q 0,0.34219 0.103695,0.6429 0.114063,0.29035 0.311082,0.50811 0.207388,0.21775 0.497732,0.34218 0.300713,0.12444 0.674013,0.12444 0.508101,0 0.8814,-0.2385 0.383669,-0.2385 0.591057,-0.68438 l 0.591058,0.42514 q -0.259236,0.54958 -0.808816,0.89178 -0.549579,0.33182 -1.306547,0.33182 z m 0,-4.90474 q -0.34219,0 -0.622165,0.12443 -0.279974,0.11407 -0.487363,0.33182 -0.197019,0.21776 -0.311082,0.51848 -0.114064,0.29034 -0.114064,0.6429 v 0.0726 h 2.955285 v -0.11407 q 0,-0.71549 -0.394038,-1.14064 Q 28.308811,277.83 27.665907,277.83 Z m 3.681145,4.7803 v -5.35062 h 0.829553 v 0.9851 h 0.05185 q 0.145172,-0.38367 0.518471,-0.68439 0.373299,-0.30071 1.026573,-0.30071 h 0.321452 v 0.82955 h -0.487363 q -0.674012,0 -1.057681,0.25924 -0.373299,0.24887 -0.373299,0.63254 v 3.62929 z m 5.765411,0.12444 q -0.54958,0 -0.995465,-0.19702 -0.435516,-0.19702 -0.756967,-0.55995 -0.311083,-0.3733 -0.487363,-0.8814 -0.165911,-0.51847 -0.165911,-1.16138 0,-0.63253 0.165911,-1.151 0.17628,-0.51848 0.487363,-0.8814 0.321451,-0.3733 0.756967,-0.57032 0.445885,-0.19702 0.995465,-0.19702 0.539209,0 0.964356,0.19702 0.425146,0.19702 0.725859,0.54958 0.300713,0.34219 0.456255,0.81918 0.165911,0.477 0.165911,1.04731 v 0.39404 h -3.847056 v 0.24887 q 0,0.34219 0.103694,0.6429 0.114064,0.29035 0.311083,0.50811 0.207388,0.21775 0.497732,0.34218 0.300713,0.12444 0.674013,0.12444 0.508102,0 0.881401,-0.2385 0.383668,-0.2385 0.591057,-0.68438 l 0.591057,0.42514 q -0.259236,0.54958 -0.808815,0.89178 -0.54958,0.33182 -1.306547,0.33182 z m 0,-4.90474 q -0.342191,0 -0.622166,0.12443 -0.279974,0.11407 -0.487363,0.33182 -0.197018,0.21776 -0.311082,0.51848 -0.114064,0.29034 -0.114064,0.6429 v 0.0726 h 2.955285 v -0.11407 q 0,-0.71549 -0.394038,-1.14064 Q 37.755366,277.83 37.112463,277.83 Z m 7.103053,3.90927 h -0.04148 q -0.487363,0.99547 -1.565783,0.99547 -0.497733,0 -0.90214,-0.19702 -0.404407,-0.19702 -0.694751,-0.55995 -0.279975,-0.36293 -0.435516,-0.8814 -0.145172,-0.51847 -0.145172,-1.16138 0,-0.6429 0.145172,-1.16137 0.155541,-0.51847 0.435516,-0.88141 0.290344,-0.36292 0.694751,-0.55994 0.404407,-0.19702 0.90214,-0.19702 0.559949,0 0.953986,0.24886 0.404408,0.2385 0.611797,0.7466 h 0.04148 v -3.19378 h 0.829554 v 7.67337 h -0.829554 z m -1.379133,0.24887 q 0.279975,0 0.528841,-0.0726 0.259235,-0.0726 0.445885,-0.20739 0.18665,-0.14517 0.290344,-0.34219 0.114063,-0.20739 0.114063,-0.46662 v -1.99093 q 0,-0.21776 -0.114063,-0.40441 -0.103694,-0.19702 -0.290344,-0.33182 -0.18665,-0.1348 -0.445885,-0.20738 -0.248866,-0.083 -0.528841,-0.083 -0.70512,0 -1.109528,0.44588 -0.404407,0.43552 -0.404407,1.15101 v 0.91251 q 0,0.71549 0.404407,1.16137 0.404408,0.43552 1.109528,0.43552 z m 6.418671,-7.05121 h 0.829553 v 3.19378 h 0.04148 q 0.207388,-0.5081 0.601426,-0.7466 0.404408,-0.24886 0.964356,-0.24886 0.497733,0 0.90214,0.19702 0.404408,0.19702 0.684381,0.55994 0.290345,0.36294 0.435517,0.88141 0.155541,0.51847 0.155541,1.16137 0,0.64291 -0.155541,1.16138 -0.145172,0.51847 -0.435517,0.8814 -0.279973,0.36293 -0.684381,0.55995 -0.404407,0.19702 -0.90214,0.19702 -1.088789,0 -1.565782,-0.99547 h -0.04148 v 0.87103 h -0.829553 z m 2.208686,7.05121 q 0.705121,0 1.109529,-0.43552 0.404407,-0.44588 0.404407,-1.16137 v -0.91251 q 0,-0.71549 -0.404407,-1.15101 -0.404408,-0.44588 -1.109529,-0.44588 -0.279974,0 -0.539209,0.083 -0.248867,0.0726 -0.435516,0.20738 -0.18665,0.1348 -0.300713,0.33182 -0.103695,0.18665 -0.103695,0.40441 v 1.99093 q 0,0.25923 0.103695,0.46662 0.114063,0.19702 0.300713,0.34219 0.186649,0.1348 0.435516,0.20739 0.259235,0.0726 0.539209,0.0726 z m 7.051215,-4.72846 h 0.819184 l -2.395337,6.59496 q -0.09332,0.23849 -0.186649,0.39403 -0.09333,0.16591 -0.228128,0.25924 -0.134802,0.0933 -0.34219,0.1348 -0.197019,0.0415 -0.487363,0.0415 h -0.425146 v -0.72586 h 0.839923 l 0.404407,-1.14063 -2.001298,-5.55802 h 0.829554 l 1.285808,3.63967 0.248866,0.87103 h 0.05185 l 0.290343,-0.87103 z m 2.509407,5.47506 q -0.331822,0 -0.487363,-0.16592 -0.145172,-0.1659 -0.145172,-0.43551 v -0.13481 q 0,-0.2696 0.145172,-0.43551 0.155541,-0.16591 0.487363,-0.16591 0.331821,0 0.476993,0.16591 0.155541,0.16591 0.155541,0.43551 v 0.13481 q 0,0.26961 -0.155541,0.43551 -0.145172,0.16592 -0.476993,0.16592 z m 0,-4.26183 q -0.331822,0 -0.487363,-0.16592 -0.145172,-0.1659 -0.145172,-0.43551 v -0.13481 q 0,-0.2696 0.145172,-0.43551 0.155541,-0.16591 0.487363,-0.16591 0.331821,0 0.476993,0.16591 0.155541,0.16591 0.155541,0.43551 v 0.13481 q 0,0.26961 -0.155541,0.43551 -0.145172,0.16592 -0.476993,0.16592 z"
       id="text2"
       aria-label="Powered by:" /><path
       style="fill:none;fill-rule:evenodd;stroke:#000000;stroke-width:0.5;stroke-linejoin:round;stroke-dasharray:none"
       d="m 73.379676,272.21966 v 15.18176"
       id="path3" /></g></svg>
