<?xml version="1.0" encoding="UTF-8" standalone="no"?>
<!-- Created with Inkscape (http://www.inkscape.org/) -->

<svg
   width="471.5769mm"
   height="70.736832mm"
   viewBox="0 0 471.5769 70.736834"
   version="1.1"
   id="svg1"
   xml:space="preserve"
   inkscape:version="1.3.2 (091e20ef0f, 2023-11-25, custom)"
   sodipodi:docname="logo.svg"
   inkscape:export-filename="LuxSCale.png"
   inkscape:export-xdpi="72"
   inkscape:export-ydpi="72"
   xmlns:inkscape="http://www.inkscape.org/namespaces/inkscape"
   xmlns:sodipodi="http://sodipodi.sourceforge.net/DTD/sodipodi-0.dtd"
   xmlns="http://www.w3.org/2000/svg"
   xmlns:svg="http://www.w3.org/2000/svg"><sodipodi:namedview
     id="namedview1"
     pagecolor="#ffffff"
     bordercolor="#000000"
     borderopacity="0.25"
     inkscape:showpageshadow="2"
     inkscape:pageopacity="0.0"
     inkscape:pagecheckerboard="0"
     inkscape:deskcolor="#d1d1d1"
     inkscape:document-units="mm"
     inkscape:zoom="0.26016034"
     inkscape:cx="741.8502"
     inkscape:cy="495.84806"
     inkscape:window-width="1920"
     inkscape:window-height="1048"
     inkscape:window-x="0"
     inkscape:window-y="0"
     inkscape:window-maximized="1"
     inkscape:current-layer="layer1" /><defs
     id="defs1"><linearGradient
       id="paint0_linear_958_15881"
       x1="-57.4049"
       y1="130.44099"
       x2="354.97"
       y2="30.368999"
       gradientUnits="userSpaceOnUse"
       gradientTransform="translate(711.20148,321.49779)"><stop
         stop-color="#439DDF"
         id="stop1" /><stop
         offset="0.524208"
         stop-color="#4F87ED"
         id="stop2" /><stop
         offset="0.781452"
         stop-color="#9476C5"
         id="stop3" /><stop
         offset="0.888252"
         stop-color="#BC688E"
         id="stop4" /><stop
         offset="1"
         stop-color="#D6645D"
         id="stop5" /></linearGradient></defs><g
     inkscape:label="Layer 1"
     inkscape:groupmode="layer"
     id="layer1"
     transform="translate(225.82343,-177.02449)"><g
       id="g5"
       transform="matrix(1.5935014,0,0,1.5935014,50.479407,-352.11905)"
       style="stroke-width:0.627549;fill:#ffffff"><path
         id="path4"
         style="font-weight:500;font-size:47.9957px;line-height:1.25;font-family:'IBM Plex Sans Arabic';-inkscape-font-specification:'IBM Plex Sans Arabic Medium';letter-spacing:0px;stroke-width:0.166039;fill:#ffffff"
         d="m -23.362806,338.67361 v 30.33303 c 0,1.63185 0.432123,2.91216 1.296045,3.84008 0.895919,0.89592 2.239958,1.34358 4.031795,1.34358 h 3.359485 v -4.27157 h -3.455603 v -31.24512 z m -150.030724,2.0159 v 33.50079 h 19.05413 v -4.7997 h -13.63069 v -28.70109 z m 132.224576,7.96695 c -2.43178,0 -4.399652,0.46425 -5.903516,1.39216 -1.503864,0.89592 -2.671737,2.04774 -3.503662,3.45561 l 3.119706,2.83187 c 0.639942,-0.99192 1.423879,-1.80798 2.351795,-2.44792 0.927916,-0.63994 2.127913,-0.95963 3.59978,-0.95963 1.759841,0 3.055693,0.41555 3.887618,1.24747 0.831924,0.83193 1.247469,2.01586 1.247469,3.55172 v 2.11202 h -4.511353 c -3.487683,0 -6.143637,0.62383 -7.967472,1.87172 -1.791837,1.24788 -2.687691,3.11991 -2.687691,5.61568 0,2.27179 0.688081,4.07956 2.063957,5.42344 1.407872,1.34388 3.407869,2.0159 5.999633,2.0159 1.823835,0 3.375646,-0.40001 4.65553,-1.19993 1.279884,-0.79993 2.159675,-1.98386 2.639632,-3.55172 h 0.239779 c 0.159986,1.21589 0.608171,2.22366 1.344104,3.02359 0.735933,0.76793 1.79189,1.15186 3.167765,1.15186 h 2.92747 v -4.27157 h -2.639632 v -12.52688 c 0,-2.81575 -0.86373,-4.97533 -2.591573,-6.4792 -1.727844,-1.50385 -4.207632,-2.25619 -7.439339,-2.25619 z m 41.27603301,0 c -1.79183761,0 -3.39183451,0.30414 -4.79970701,0.91209 -1.4078724,0.60794 -2.6073533,1.48773 -3.5992635,2.63963 -0.9919102,1.1199 -1.7603015,2.49606 -2.3042525,4.12792 -0.511953,1.59985 -0.767912,3.39155 -0.767912,5.37538 0,1.98382 0.255959,3.79159 0.767912,5.42344 0.543951,1.59986 1.3123423,2.97602 2.3042525,4.12791 0.9919102,1.1199 2.1913911,1.98363 3.5992635,2.59158 1.4078725,0.60794 3.0078694,0.91209 4.79970701,0.91209 2.33578849,0 4.38345379,-0.44819 6.14329429,-1.34411 1.7598405,-0.92792 3.1038785,-2.15952 4.0317957,-3.69538 l -3.0716472,-3.0241 c -0.7359338,1.15189 -1.6317872,2.06381 -2.6876916,2.73575 -1.0559043,0.67193 -2.3517571,1.0082 -3.88761809,1.0082 -2.11180861,0 -3.74392941,-0.60828 -4.89582511,-1.82418 -1.1198985,-1.24788 -1.679484,-2.8313 -1.679484,-4.75113 v -0.81597 h 17.134355 v -1.96784 c 0,-1.72783 -0.239896,-3.3439 -0.719853,-4.84776 -0.447959,-1.50387 -1.1360402,-2.81578 -2.0639572,-3.93568 -0.927915,-1.1519 -2.0957892,-2.04775 -3.5036617,-2.68769 -1.3758754,-0.63994 -2.9758722,-0.96015 -4.79970709,-0.96015 z M -152.27234,349.23265 v 15.88637 c 0,3.10373 0.70414,5.48766 2.11202,7.1515 1.43987,1.66386 3.45541,2.49598 6.04717,2.49598 1.02391,0 1.91976,-0.12798 2.68769,-0.38396 0.79993,-0.25597 1.47195,-0.59224 2.0159,-1.00821 0.57595,-0.44796 1.0402,-0.95987 1.39216,-1.53582 0.38397,-0.57595 0.6876,-1.16766 0.91158,-1.7756 h 0.19223 v 4.12739 h 5.23121 v -24.95765 h -5.23121 v 16.70234 c 0,0.73594 -0.1601,1.37583 -0.48007,1.91978 -0.28797,0.54395 -0.68797,0.99213 -1.19993,1.34411 -0.47995,0.35196 -1.04005,0.62399 -1.68,0.81597 -0.63994,0.15998 -1.2959,0.23978 -1.96784,0.23978 -3.19971,0 -4.79919,-1.93575 -4.79919,-5.8074 v -15.21458 z m 25.53384,0 8.54315,12.33465 -8.78344,12.623 h 5.56762 l 5.99963,-9.07128 h 0.14366 l 5.75986,9.07128 h 6.04717 l -8.68732,-12.67054 8.54366,-12.28711 h -5.56762 l -5.75934,8.68733 h -0.14417 l -5.61568,-8.68733 z m 126.84557901,3.50367 c 1.72784359,0 3.08794429,0.59222 4.07985439,1.77611 0.9919101,1.1519 1.4877645,2.68765 1.4877645,4.60748 v 0.48007 H -5.940097 v -0.33641 c 0,-0.95992 0.1435243,-1.8397 0.4314982,-2.63964 0.2879739,-0.79992 0.6879731,-1.48801 1.1999267,-2.06395 0.5439507,-0.57595 1.1838461,-1.02362 1.9197795,-1.34359 0.7679304,-0.31997 1.60005271,-0.48007 2.49597161,-0.48007 z M -40.784998,363.19924 h 4.415234 v 3.59978 c 0,1.2159 -0.527978,2.19206 -1.583883,2.92799 -1.055904,0.70393 -2.399426,1.05575 -4.031278,1.05575 -1.311881,0 -2.351776,-0.27203 -3.119706,-0.81597 -0.735934,-0.57595 -1.103809,-1.42362 -1.103809,-2.54352 v -0.86403 c 0,-2.23979 1.807769,-3.36 5.423442,-3.36 z"
         sodipodi:nodetypes="cscsccccccccccccscccsssscscscsscccscccsssssccsccsscccsscsccscccscscscccccccccscccsscccccccccccccccccscsccssccsscscscsss" /><path
         id="path5"
         style="font-weight:300;font-size:47.9957px;line-height:1.25;font-family:'IBM Plex Sans Arabic';-inkscape-font-specification:'IBM Plex Sans Arabic Light';letter-spacing:0px;fill:#b3b3b3;fill-opacity:1;stroke-width:0.166039"
         d="m 29.605965,340.68951 -11.85509,33.50079 h 2.879927 l 3.64784,-10.41486 h 14.254427 l 3.647839,10.41486 h 3.023588 L 33.301347,340.68951 Z m 19.870105,0 v 2.39985 h 4.895825 v 28.70109 H 49.47607 v 2.39985 h 12.671061 v -2.39985 h -4.895825 v -28.70109 h 4.895825 v -2.39985 z m -18.190104,2.73575 h 0.191719 l 6.287472,17.8542 H 24.998494 Z" /><path
         id="text67"
         style="font-weight:bold;font-size:66.5962px;line-height:1.25;font-family:Bison;-inkscape-font-specification:'Bison Bold';letter-spacing:0px;fill:#eb1b26;stroke-width:0.166039;fill-opacity:1"
         d="m -90.031954,332.06343 c -2.975917,0 -5.373146,0.84695 -7.191763,2.54158 -2.06661,1.98394 -3.100123,4.69162 -3.100123,8.12218 v 1.05358 c 0,1.94261 0.39287,3.76138 1.178182,5.45601 0.785312,1.69461 1.921501,3.20343 3.40946,4.52606 0.909308,0.7853 2.33569,1.69445 4.278303,2.72776 1.405294,0.78531 2.272983,1.3228 2.603641,1.61212 1.529291,1.40529 2.293821,3.05823 2.293821,4.95952 v 2.72824 c 0,1.5293 -0.309958,2.56233 -0.92994,3.09964 -0.495987,0.49599 -1.342947,0.74425 -2.541581,0.74425 -1.157301,0 -2.004743,-0.24826 -2.542062,-0.74425 -0.619982,-0.57865 -0.92994,-1.61168 -0.92994,-3.09964 v -5.64218 h -6.819884 v 5.64218 c 0,3.43057 1.033513,6.13776 3.100123,8.12171 1.818617,1.69462 4.215846,2.54206 7.191763,2.54206 2.975919,0 5.373147,-0.84744 7.191763,-2.54206 2.06661,-1.98395 3.099641,-4.69114 3.099641,-8.12171 v -2.72824 c 0,-3.9679 -1.52906,-7.31572 -4.587641,-10.04365 -0.826645,-0.74397 -2.314728,-1.69457 -4.464003,-2.85188 -1.198634,-0.66131 -2.004619,-1.15734 -2.417941,-1.488 -1.529292,-1.36396 -2.293821,-2.99666 -2.293821,-4.89794 v -1.05358 c 0,-1.48796 0.309958,-2.52146 0.92994,-3.10012 0.537319,-0.49599 1.384761,-0.74376 2.542062,-0.74376 1.198634,0 2.045594,0.24777 2.541581,0.74376 0.619982,0.53732 0.92994,1.57083 0.92994,3.10012 v 3.78182 h 6.819883 v -3.78182 c 0,-3.43056 -1.033031,-6.13824 -3.099641,-8.12218 -1.818616,-1.69463 -4.215844,-2.54158 -7.191763,-2.54158 z m 24.117351,0 c -2.893254,0 -5.290482,0.84695 -7.191763,2.54158 -2.06661,2.06661 -3.100122,4.77428 -3.100122,8.12218 v 23.06329 c 0,3.34791 1.033512,6.05509 3.100122,8.12171 1.901281,1.69462 4.298509,2.54206 7.191763,2.54206 2.975918,0 5.373146,-0.84744 7.191763,-2.54206 2.06661,-1.98395 3.099641,-4.69114 3.099641,-8.12171 v -5.58012 h -6.819884 v 5.58012 c 0,1.5293 -0.289228,2.56233 -0.867879,3.09964 -0.537319,0.49599 -1.405008,0.74425 -2.603641,0.74425 -1.157302,0 -2.004743,-0.24826 -2.542062,-0.74425 -0.619982,-0.57865 -0.92994,-1.61168 -0.92994,-3.09964 v -23.06329 c 0,-1.48796 0.309958,-2.52146 0.92994,-3.10012 0.537319,-0.49599 1.38476,-0.74376 2.542062,-0.74376 1.198633,0 2.066322,0.24777 2.603641,0.74376 0.578651,0.53732 0.867879,1.57083 0.867879,3.10012 v 3.84389 h 6.819884 v -3.84389 c 0,-3.43056 -1.033031,-6.13824 -3.099641,-8.12218 -1.818617,-1.69463 -4.215845,-2.54158 -7.191763,-2.54158 z" /><path
         id="text1"
         style="font-size:23.269px;line-height:1.25;font-family:'IBM Plex Sans Arabic';-inkscape-font-specification:'IBM Plex Sans Arabic';letter-spacing:0px;fill:#ffffff;fill-opacity:1;stroke-width:0.104198"
         d="m 76.820403,357.94869 v 16.24166 h 7.376411 c 0.604993,0 1.16339,-0.11625 1.675307,-0.34894 0.511917,-0.2482 0.954062,-0.58194 1.326366,-1.00078 0.372304,-0.41884 0.659338,-0.91519 0.861003,-1.48916 0.217177,-0.57396 0.325916,-1.1944 0.325916,-1.86145 0,-0.66705 -0.116576,-1.23328 -0.349265,-1.69866 -0.217178,-0.48089 -0.488539,-0.86883 -0.814305,-1.16357 -0.325765,-0.31025 -0.674844,-0.53524 -1.047148,-0.67485 -0.356791,-0.1396 -0.682685,-0.21699 -0.977425,-0.23252 v -0.13977 c 0.263715,-0.0465 0.55075,-0.13177 0.861003,-0.25587 0.310253,-0.13962 0.597288,-0.34109 0.861003,-0.60481 0.263715,-0.27923 0.480869,-0.62831 0.651508,-1.04715 0.17064,-0.41884 0.255869,-0.93087 0.255869,-1.53586 0,-1.27204 -0.387613,-2.28825 -1.163246,-3.04837 -0.760119,-0.76012 -1.815193,-1.1399 -3.164793,-1.1399 z m 28.644317,0.90738 v 2.23374 c 0,0.40333 -0.0777,0.69037 -0.23284,0.861 -0.13962,0.15513 -0.41098,0.23285 -0.81431,0.23285 h -1.11687 v 1.62861 h 1.97787 v 8.40021 c 0,0.58947 0.16296,1.07048 0.48872,1.44278 0.34128,0.3568 0.83763,0.53509 1.48916,0.53509 h 2.32681 v -1.62893 h -2.44323 v -8.74915 h 2.62938 v -1.62861 h -2.62938 v -3.32759 z m -26.689468,0.8143 h 4.490835 c 0.775633,0 1.380725,0.19397 1.815079,0.58179 0.434353,0.38781 0.651508,0.9462 0.651508,1.6753 v 0.79128 c 0,0.7291 -0.217155,1.28749 -0.651508,1.67531 -0.434354,0.38781 -1.039446,0.58179 -1.815079,0.58179 h -4.490835 z m 17.568026,2.23407 c -0.822171,0 -1.566699,0.14727 -2.233743,0.44201 -0.651532,0.29474 -1.217764,0.72122 -1.698657,1.27967 -0.465379,0.54295 -0.830131,1.20224 -1.093846,1.97787 -0.248203,0.77564 -0.372291,1.63674 -0.372291,2.58301 0,0.96178 0.124088,1.8304 0.372291,2.60604 0.263715,0.76012 0.628467,1.41941 1.093846,1.97787 0.480893,0.54294 1.047125,0.9619 1.698657,1.25664 0.667044,0.29475 1.411572,0.44202 2.233743,0.44202 1.132423,0 2.109779,-0.24818 2.93195,-0.74458 0.822172,-0.51192 1.426942,-1.17905 1.814752,-2.00123 l -1.32604,-0.95407 c -0.310253,0.66704 -0.752398,1.17907 -1.326366,1.53586 -0.558455,0.35679 -1.217754,0.53508 -1.977874,0.53508 -0.558456,0 -1.062645,-0.0931 -1.512512,-0.27921 -0.434354,-0.18616 -0.806618,-0.44217 -1.116871,-0.76793 -0.29474,-0.32577 -0.527568,-0.70587 -0.698207,-1.14022 -0.155126,-0.44987 -0.232519,-0.93055 -0.232519,-1.44247 v -0.55843 h 8.632729 v -0.88436 c 0,-0.85319 -0.12409,-1.63657 -0.37229,-2.35016 -0.23269,-0.71358 -0.57393,-1.32618 -1.0238,-1.8381 -0.449866,-0.52743 -0.992914,-0.93856 -1.628932,-1.2333 -0.636019,-0.29474 -1.357362,-0.44201 -2.16402,-0.44201 z m 20.220762,0 c -1.08589,0 -1.98553,0.2325 -2.69911,0.69788 -0.71358,0.44987 -1.23344,1.00075 -1.55921,1.65228 l 1.11687,1.04683 c 0.32577,-0.54295 0.72905,-0.97726 1.20995,-1.30302 0.49639,-0.32577 1.10932,-0.48871 1.83842,-0.48871 0.96179,0 1.67529,0.22499 2.14067,0.67486 0.46538,0.44986 0.69821,1.10133 0.69821,1.95452 v 1.18692 h -2.37351 c -1.75294,0 -3.04834,0.30238 -3.88603,0.90738 -0.82217,0.60499 -1.23329,1.47361 -1.23329,2.60603 0,1.11691 0.34908,2.0012 1.04715,2.65273 0.71358,0.65154 1.70661,0.97743 2.97864,0.97743 0.83769,0 1.55903,-0.18613 2.16402,-0.55844 0.605,-0.3723 1.0393,-0.9307 1.30302,-1.67531 h 0.1161 c 0.0776,0.55846 0.26402,1.02379 0.55876,1.39609 0.31025,0.37231 0.81412,0.55844 1.51218,0.55844 h 1.04715 v -1.62893 h -1.37274 v -6.60848 c 0,-1.27204 -0.40328,-2.26475 -1.20994,-2.97833 -0.80666,-0.71358 -1.93912,-1.07017 -3.39731,-1.07017 z m -20.220762,1.55888 c 0.961784,0 1.729498,0.3259 2.303466,0.97743 0.589481,0.63602 0.884352,1.48896 0.884352,2.55933 v 0.2562 h -6.631505 v -0.16312 c 0,-0.52743 0.08523,-1.00811 0.255868,-1.44247 0.17064,-0.44986 0.403143,-0.8378 0.697883,-1.16357 0.310253,-0.32576 0.675005,-0.57394 1.093846,-0.74458 0.418842,-0.18615 0.884172,-0.27922 1.39609,-0.27922 z m -17.568026,3.18782 h 4.816427 c 0.837684,0 1.496983,0.21716 1.977875,0.65151 0.480892,0.41885 0.721556,1.03929 0.721556,1.86145 v 0.79128 c 0,0.82218 -0.240664,1.45045 -0.721556,1.8848 -0.480892,0.41884 -1.140191,0.62816 -1.977875,0.62816 h -4.816427 z m 38.067998,2.07095 h 2.46659 v 1.97787 c 0,0.31026 -0.0777,0.59729 -0.23284,0.86101 -0.15513,0.26371 -0.37228,0.49621 -0.65151,0.69788 -0.27923,0.20167 -0.61264,0.35678 -1.00045,0.46536 -0.38782,0.10859 -0.81461,0.16312 -1.27999,0.16312 -0.7291,0 -1.31068,-0.16294 -1.74503,-0.48871 -0.41885,-0.32576 -0.62816,-0.78325 -0.62816,-1.37274 v -0.48871 c 0,-0.58948 0.24034,-1.03946 0.72123,-1.34972 0.4964,-0.31025 1.27979,-0.46536 2.35016,-0.46536 z" /></g></g></svg>
